<svg width="1440" height="1024" viewBox="0 0 1440 1024" fill="none" xmlns="http://www.w3.org/2000/svg">
<rect width="1440" height="1024" fill="url(#paint0_linear_309_901)"/>
<path d="M835.388 487.592V506.212H827.982V480.258H824.93V506.212H812.721V474.16H809.659V506.212H797.445V466.518H794.393V506.212L782.164 506.217V458.894H779.117V506.217H766.893V451.264H763.841V506.217H751.627V443.624H748.565V506.208H736.351V434.462H733.289V506.208H721.065V426.301H718.018V506.218H710.049L710.054 419.073C710.054 413.51 705.554 409 699.992 409C694.424 409 689.913 413.51 689.913 419.073V506.218H685.955L685.95 426.301H682.887V506.218H670.663V434.473H667.616V506.218H655.392L655.397 443.625H652.345V506.209H640.132V451.256H637.08V506.209H624.856V458.886H621.803V506.209H609.579V466.516H606.533V506.209H594.309V474.157H591.262V506.209H579.038V480.256H575.985V506.209H563.772V489.417H560.704V506.209H548.48V495.516H545.428V506.209H533.204V495.516H530.157V506.209H517.928V489.417H514.876V506.209H502.662V480.256H499.61V506.209H487.402V474.157H484.339V506.209H472.115V466.516H469.068V506.209H456.844V458.886H453.782V506.209H441.568V451.256H438.506V506.209H426.292L426.287 443.625H423.235V506.209H411.011V434.464H407.964V506.209H395.74V426.302H392.688V506.22H387.146V419.074C387.146 413.512 382.636 409.001 377.068 409.001C371.511 409.001 367.005 413.512 367.005 419.074V506.22H362.146L362.141 426.302H359.078V506.22H346.87V434.474H343.818V506.22H331.604V443.626H328.542V506.21H316.318V451.257H313.271V506.21H301.042V458.888H297.995V506.21H285.771V466.517H282.719V506.21H270.505V474.158H267.442V506.21H255.229V480.257H252.177V506.21H241.927V487.56L178 496.502V513.945H241.927V510.242H367.009V578.955H349.425V614.857H406.196V578.955H387.149V510.242H689.909V578.955H670.863V614.857H727.639V578.955H710.045V510.242H835.384V513.945H899.061V496.502L835.388 487.592Z" fill="url(#paint1_linear_309_901)"/>
<path d="M1202.39 487.592V506.212H1194.98V480.258H1191.93V506.212H1179.72V474.16H1176.66V506.212H1164.45V466.518H1161.39V506.212L1149.16 506.217V458.894H1146.12V506.217H1133.89V451.264H1130.84V506.217H1118.63V443.624H1115.56V506.208H1103.35V434.462H1100.29V506.208H1088.06V426.301H1085.02V506.218H1077.05L1077.05 419.073C1077.05 413.51 1072.55 409 1066.99 409C1061.42 409 1056.91 413.51 1056.91 419.073V506.218H1052.95L1052.95 426.301H1049.89V506.218H1037.66V434.473H1034.62V506.218H1022.39L1022.4 443.625H1019.35V506.209H1007.13V451.256H1004.08V506.209H991.856V458.886H988.803V506.209H976.579V466.516H973.533V506.209H961.309V474.157H958.262V506.209H946.038V480.256H942.985V506.209H930.772V489.417H927.704V506.209H915.48V495.516H912.428V506.209H900.204V495.516H897.157V506.209H884.928V489.417H881.876V506.209H869.662V480.256H866.61V506.209H854.402V474.157H851.339V506.209H839.115V466.516H836.068V506.209H823.844V458.886H820.782V506.209H808.568V451.256H805.506V506.209H793.292L793.287 443.625H790.235V506.209H778.011V434.464H774.964V506.209H762.74V426.302H759.688V506.22H754.146V419.074C754.146 413.512 749.636 409.001 744.068 409.001C738.511 409.001 734.005 413.512 734.005 419.074V506.22H729.146L729.141 426.302H726.078V506.22H713.87V434.474H710.818V506.22H698.604V443.626H695.542V506.21H683.318V451.257H680.271V506.21H668.042V458.888H664.995V506.21H652.771V466.517H649.719V506.21H637.505V474.158H634.442V506.21H622.229V480.257H619.177V506.21H608.927V487.56L545 496.502V513.945H608.927V510.242H734.009V578.955H716.425V614.857H773.196V578.955H754.149V510.242H1056.91V578.955H1037.86V614.857H1094.64V578.955H1077.05V510.242H1202.38V513.945H1266.06V496.502L1202.39 487.592Z" fill="url(#paint2_linear_309_901)"/>
<rect x="539" y="409" width="367" height="215" fill="url(#paint3_linear_309_901)"/>
<path fill-rule="evenodd" clip-rule="evenodd" d="M1232 511.999C1232 553.42 1265.58 586.998 1307 586.998C1348.42 586.998 1382 553.42 1382 511.999C1382 470.578 1348.42 437 1307 437C1265.58 437 1232 470.578 1232 511.999Z" fill="#0C0C4F"/>
<path fill-rule="evenodd" clip-rule="evenodd" d="M1273.92 494.332L1275.77 488.612C1276.15 487.449 1277.06 486.544 1278.23 486.187L1283.98 484.419C1284.77 484.176 1284.78 483.054 1283.99 482.798L1278.27 480.947C1277.11 480.57 1276.2 479.652 1275.84 478.484L1274.08 472.736C1273.84 471.943 1272.71 471.934 1272.46 472.726L1270.61 478.446C1270.23 479.607 1269.31 480.512 1268.14 480.871L1262.4 482.637C1261.6 482.882 1261.59 484.002 1262.38 484.258L1268.11 486.109C1269.27 486.486 1270.17 487.406 1270.53 488.574L1272.3 494.319C1272.54 495.115 1273.66 495.123 1273.92 494.332Z" fill="#FAFAFA"/>
<path fill-rule="evenodd" clip-rule="evenodd" d="M1364.77 491.004C1362.4 488.354 1358.7 486.862 1355.11 486.25C1351.48 485.663 1347.68 485.717 1344.11 486.353C1336.87 487.577 1330.29 490.575 1324.55 494.272C1321.58 496.087 1319.04 498.187 1316.4 500.325C1315.14 501.407 1313.98 502.559 1312.78 503.694L1309.49 506.967C1305.91 510.704 1302.39 514.107 1298.98 516.928C1295.56 519.736 1292.36 521.868 1289.2 523.357C1286.05 524.854 1282.68 525.735 1278.28 525.876C1273.93 526.029 1268.77 525.243 1263.26 523.945C1257.71 522.653 1251.89 520.811 1245.39 519.226C1247.66 525.523 1251.08 531.088 1255.46 536.174C1259.9 541.172 1265.45 545.728 1272.57 548.724C1279.59 551.787 1288.41 552.886 1296.66 551.227C1304.93 549.636 1312.18 545.809 1318.05 541.384C1323.93 536.913 1328.69 531.82 1332.7 526.526C1333.81 525.063 1334.39 524.245 1335.19 523.101L1337.41 519.821C1338.95 517.791 1340.35 515.481 1341.87 513.471C1344.86 509.26 1347.8 505.054 1351.22 501.18C1352.95 499.214 1354.76 497.334 1356.91 495.528C1357.97 494.646 1359.13 493.783 1360.41 493.006C1361.71 492.167 1363.08 491.511 1364.77 491.004Z" fill="url(#paint4_linear_309_901)"/>
<path fill-rule="evenodd" clip-rule="evenodd" d="M1364.77 491C1362.22 484.577 1357.49 479.17 1351.14 475.18C1344.83 471.234 1336.06 469.22 1327.37 470.937C1323.08 471.767 1318.92 473.365 1315.27 475.494C1311.63 477.614 1308.38 480.166 1305.56 482.904C1304.15 484.277 1302.88 485.71 1301.61 487.151L1298.32 491.344L1293.24 498.092C1286.76 506.776 1279.79 516.952 1268.35 519.967C1257.12 522.928 1252.24 520.306 1245.39 519.223C1246.64 522.46 1248.2 525.602 1250.3 528.368C1252.37 531.189 1254.81 533.838 1257.84 536.109C1259.37 537.2 1260.99 538.277 1262.79 539.19C1264.58 540.072 1266.51 540.849 1268.57 541.433C1272.67 542.556 1277.28 542.95 1281.75 542.345C1286.21 541.749 1290.49 540.333 1294.22 538.452C1297.98 536.589 1301.26 534.321 1304.18 531.926C1310 527.097 1314.52 521.761 1318.34 516.367C1320.26 513.67 1322.01 510.922 1323.62 508.174L1325.52 504.902C1326.1 503.945 1326.69 502.983 1327.28 502.087C1329.69 498.486 1332.04 495.598 1334.9 493.431C1337.72 491.208 1341.65 489.565 1346.89 489.184C1352.12 488.798 1358.15 489.511 1364.77 491Z" fill="#FAFAFA"/>
<path fill-rule="evenodd" clip-rule="evenodd" d="M1336.51 544.372C1336.51 549.09 1340.33 552.917 1345.05 552.917C1349.77 552.917 1353.59 549.09 1353.59 544.372C1353.59 539.655 1349.77 535.828 1345.05 535.828C1340.33 535.828 1336.51 539.655 1336.51 544.372Z" fill="#EC796B"/>
<path d="M134 587C175.421 587 209 553.421 209 512C209 470.579 175.421 437 134 437C92.5786 437 59 470.579 59 512C59 553.421 92.5786 587 134 587Z" fill="#6F41D8"/>
<path d="M157.871 496.498C157.87 496.498 157.868 496.498 157.867 496.497C156.138 495.491 153.893 495.491 151.991 496.498L138.496 504.252L129.332 509.305L115.836 517.053C114.107 518.066 111.861 518.066 109.958 517.053L99.2331 510.988C97.5034 509.98 96.294 508.128 96.294 506.103V494.141C96.294 492.12 97.33 490.269 99.2331 489.256L109.78 483.359C111.514 482.347 113.764 482.347 115.667 483.359L126.214 489.256C127.949 490.269 129.158 492.12 129.158 494.141V494.141C129.158 497.597 132.891 499.765 135.893 498.053L136.01 497.986C137.44 497.171 138.322 495.651 138.322 494.006V488.919C138.332 487.912 138.063 486.923 137.544 486.061C137.025 485.198 136.277 484.497 135.383 484.034L115.836 472.916C114.107 471.903 111.861 471.903 109.958 472.916L90.0643 484.034C89.1704 484.497 88.4223 485.198 87.9034 486.061C87.3845 486.923 87.1151 487.912 87.1253 488.919V511.325C87.1253 513.35 88.1612 515.202 90.0643 516.214L109.958 527.333C111.688 528.341 113.938 528.341 115.836 527.333L129.332 519.748L138.496 514.527L151.991 506.947C153.721 505.934 155.966 505.934 157.869 506.947L168.421 512.844C170.155 513.852 171.36 515.703 171.36 517.728V529.691C171.36 531.711 170.328 533.562 168.421 534.575L157.874 540.641C156.139 541.653 153.889 541.653 151.991 540.641L141.439 534.744C139.705 533.731 138.496 531.88 138.496 529.859V529.859C138.496 526.403 134.763 524.235 131.761 525.947L131.644 526.014C130.214 526.829 129.332 528.349 129.332 529.994V535.081C129.332 537.102 130.367 538.958 132.271 539.966L152.164 551.084C153.894 552.097 156.139 552.097 158.042 551.084L177.936 539.966C179.666 538.958 180.875 537.106 180.875 535.081V512.675C180.885 511.669 180.616 510.679 180.097 509.817C179.578 508.954 178.83 508.253 177.936 507.791L157.876 496.5C157.874 496.499 157.873 496.498 157.871 496.498V496.498Z" fill="white"/>
<defs>
<linearGradient id="paint0_linear_309_901" x1="0" y1="512" x2="1440" y2="512" gradientUnits="userSpaceOnUse">
<stop stop-color="#FAF8FF"/>
<stop offset="0.369368" stop-color="#F3EDFF"/>
<stop offset="0.633484" stop-color="#E8F0FF"/>
<stop offset="1" stop-color="#FBECF3"/>
</linearGradient>
<linearGradient id="paint1_linear_309_901" x1="197" y1="512" x2="539" y2="512" gradientUnits="userSpaceOnUse">
<stop stop-color="#6F41D8"/>
<stop offset="1" stop-color="white"/>
</linearGradient>
<linearGradient id="paint2_linear_309_901" x1="1232" y1="512" x2="906" y2="512" gradientUnits="userSpaceOnUse">
<stop stop-color="#0C0C4F"/>
<stop offset="1" stop-color="white"/>
</linearGradient>
<linearGradient id="paint3_linear_309_901" x1="539" y1="498.5" x2="906" y2="500" gradientUnits="userSpaceOnUse">
<stop stop-color="#F3EEFF"/>
<stop offset="1" stop-color="#E8EFFF"/>
</linearGradient>
<linearGradient id="paint4_linear_309_901" x1="1364.13" y1="488.75" x2="1169.03" y2="590.255" gradientUnits="userSpaceOnUse">
<stop stop-color="#EC796B"/>
<stop offset="1" stop-color="#D672EF"/>
</linearGradient>
</defs>
</svg>
